<svg width="44" height="38" viewBox="0 0 44 38" fill="none" xmlns="http://www.w3.org/2000/svg">
<path d="M3.75391 16.8774H41.2539C41.7512 16.8774 42.2281 17.075 42.5797 17.4266C42.9314 17.7782 43.1289 18.2552 43.1289 18.7524C43.1289 19.2497 42.9314 19.7266 42.5797 20.0783C42.2281 20.4299 41.7512 20.6274 41.2539 20.6274H3.75391C3.25663 20.6274 2.77971 20.4299 2.42808 20.0783C2.07645 19.7266 1.87891 19.2497 1.87891 18.7524C1.87891 18.2552 2.07645 17.7782 2.42808 17.4266C2.77971 17.075 3.25663 16.8774 3.75391 16.8774Z" fill="#FE5C00"/>
<path d="M4.5296 18.7524L20.0809 34.2999C20.4329 34.6519 20.6307 35.1295 20.6307 35.6274C20.6307 36.1253 20.4329 36.6028 20.0809 36.9549C19.7288 37.3069 19.2513 37.5047 18.7534 37.5047C18.2554 37.5047 17.7779 37.3069 17.4259 36.9549L0.550852 20.0799C0.376239 19.9057 0.237704 19.6988 0.14318 19.471C0.0486557 19.2432 0 18.999 0 18.7524C0 18.5057 0.0486557 18.2615 0.14318 18.0337C0.237704 17.8059 0.376239 17.599 0.550852 17.4249L17.4259 0.549868C17.7779 0.197793 18.2554 0 18.7534 0C19.2513 0 19.7288 0.197793 20.0809 0.549868C20.4329 0.901943 20.6307 1.37946 20.6307 1.87737C20.6307 2.37528 20.4329 2.85279 20.0809 3.20487L4.5296 18.7524Z" fill="#FE5C00"/>
</svg>
