<svg width="45" height="45" viewBox="0 0 45 45" fill="none" xmlns="http://www.w3.org/2000/svg">
<path d="M43.0608 45L25.8606 27.802C24.4873 28.9719 22.9079 29.8773 21.1225 30.5182C19.3371 31.159 17.5426 31.4794 15.7389 31.4794C11.3404 31.4794 7.61765 29.957 4.57059 26.9121C1.52353 23.8673 0 20.1459 0 15.7479C0 11.35 1.5217 7.6268 4.5651 4.57828C7.6085 1.52976 11.3294 0.00366847 15.7279 6.58612e-06C20.1264 -0.0036553 23.8509 1.51969 26.9017 4.57004C29.9524 7.62039 31.4778 11.3436 31.4778 15.7397C31.4778 17.6475 31.1399 19.4941 30.4642 21.2792C29.7885 23.0644 28.9004 24.5914 27.7999 25.8602L45 43.0555L43.0608 45ZM15.7416 28.7302C19.3856 28.7302 22.462 27.476 24.9707 24.9677C27.4794 22.4593 28.7338 19.3824 28.7338 15.737C28.7338 12.0916 27.4794 9.01557 24.9707 6.50901C22.462 4.00245 19.3856 2.74825 15.7416 2.74642C12.0976 2.74459 9.02033 3.99879 6.5098 6.50901C3.99927 9.01923 2.74492 12.0952 2.74675 15.737C2.74858 19.3787 4.00293 22.4547 6.5098 24.9649C9.01666 27.4751 12.093 28.7293 15.7389 28.7275" fill="#FE5C00"/>
</svg>
