<svg width="43" height="38" viewBox="0 0 43 38" fill="none" xmlns="http://www.w3.org/2000/svg">
<path d="M42.9174 2.94751C42.945 2.74243 42.945 2.53149 42.9174 2.32349C42.8446 2.11548 42.7567 1.91626 42.6512 1.72876C42.6512 1.72876 42.6512 1.47974 42.4629 1.35376C42.3298 1.18384 42.1766 1.03735 42.0084 0.917236C41.8878 0.811771 41.7623 0.718021 41.6317 0.635986C41.4735 0.609619 41.3103 0.609619 41.1496 0.635986C40.8783 0.422116 40.567 0.293214 40.2405 0.260986H2.73879C2.563 0.23169 2.3822 0.23169 2.20391 0.260986C2.0432 0.234619 1.88248 0.234619 1.72177 0.260986C1.59119 0.343021 1.46563 0.436771 1.3476 0.542236C1.17685 0.662356 1.02366 0.808839 0.890573 0.978759C0.890573 0.978759 0.890573 1.22778 0.702236 1.35376H0.704747C0.589232 1.5354 0.498833 1.73462 0.436051 1.94849C0.408428 2.15649 0.408428 2.36743 0.436051 2.57251C0.262782 2.80982 0.134712 3.08813 0.0618896 3.38693V34.6349C0.0618896 35.4641 0.343139 36.2609 0.845404 36.8468C1.34767 37.4327 2.02813 37.7609 2.73881 37.7609H40.2405C40.9512 37.7609 41.6317 37.4328 42.1339 36.8468C42.6361 36.2609 42.9174 35.464 42.9174 34.6349V3.38693C42.93 3.24045 42.93 3.09397 42.9174 2.94748L42.9174 2.94751ZM33.0084 6.51001L21.4897 18.012L9.97099 6.51001H33.0084ZM5.41828 31.512V10.1663L19.7495 24.51C20.7514 25.5119 22.228 25.5119 23.23 24.51L37.5612 10.1663V31.512H5.41828Z" fill="#FD6C19"/>
</svg>
