<svg width="30" height="43" viewBox="0 0 30 43" fill="none" xmlns="http://www.w3.org/2000/svg">
<path d="M1.875 39.972H3.93375L23.9925 12.025L21.9337 9.15665L1.875 37.1037V39.972ZM0 42.5844V36.0012L24.7125 1.53902C24.905 1.30043 25.1175 1.11582 25.35 0.985201C25.5825 0.854583 25.8244 0.788403 26.0756 0.786661C26.3269 0.78492 26.5706 0.83978 26.8069 0.95124C27.0431 1.0627 27.2619 1.26298 27.4631 1.55208L29.4619 4.35253C29.6694 4.63118 29.8106 4.93596 29.8856 5.26685C29.9606 5.59775 29.9988 5.93039 30 6.26477C30 6.61831 29.9569 6.95705 29.8706 7.28098C29.7844 7.60491 29.6481 7.90011 29.4619 8.16657L4.725 42.5844H0ZM22.9444 10.6143L21.9337 9.15665L23.9925 12.025L22.9444 10.6143Z" fill="#FE5C00"/>
</svg>
