<svg width="1508" height="1508" viewBox="0 0 1508 1508" fill="none" xmlns="http://www.w3.org/2000/svg">
<g filter="url(#filter0_d_1783_8293)">
<mask id="path-1-inside-1_1783_8293" fill="white">
<path d="M642.672 902.344C642.021 904.018 637.952 903.878 630.465 901.925C622.978 899.972 612.724 896.763 599.703 892.299L580.172 884.766C551.526 873.605 523.206 859.933 495.211 843.75C490.654 840.96 477.307 832.171 455.172 817.383C433.036 802.595 420.667 794.643 418.062 793.527C374.443 851.004 330.823 901.507 287.203 945.034C234.469 998.047 200.289 1028.74 184.664 1037.11C182.06 1038.23 175.712 1039.34 165.621 1040.46C155.53 1041.57 149.508 1041.57 147.555 1040.46C151.461 1038.23 178.154 1012.56 227.633 963.449C241.305 950.056 269.137 917.969 311.129 867.188C353.121 816.406 378.674 783.482 387.789 768.415C398.857 751.674 415.458 724.191 437.594 685.965C459.729 647.74 471.448 626.116 472.75 621.094C467.542 620.536 431.734 629.743 365.328 648.717C360.12 649.833 351.168 651.925 338.473 654.994C325.777 658.064 314.547 660.714 304.781 662.946C295.016 665.179 289.482 666.574 288.18 667.132C286.878 668.248 286.227 671.177 286.227 675.921C286.227 680.664 285.901 683.315 285.25 683.873C281.995 689.453 271.904 693.638 254.977 696.429C240.003 700.335 224.703 700.335 209.078 696.429C197.359 694.196 188.245 688.337 181.734 678.85C179.13 675.502 177.503 669.085 176.852 659.598C180.758 658.482 188.733 657.087 200.777 655.413C212.822 653.739 222.424 652.065 229.586 650.391C267.346 641.462 301.526 632.534 332.125 623.605C397.229 604.074 430.432 594.308 431.734 594.308C438.245 593.192 452.242 587.751 473.727 577.986C495.211 568.22 509.534 562.221 516.695 559.989C522.555 558.315 529.553 556.083 537.691 553.292C545.829 550.502 550.549 548.968 551.852 548.689C553.154 548.41 555.107 548.549 557.711 549.107C559.013 555.804 558.688 565.011 556.734 576.73C556.734 577.846 552.665 585.379 544.527 599.33C536.389 613.281 527.763 628.209 518.648 644.113C509.534 660.017 504 669.364 502.047 672.154C485.771 700.056 460.706 736.607 426.852 781.808L489.352 805.246C497.164 808.594 521.415 817.522 562.105 832.031C602.796 846.54 624.768 854.353 628.023 855.469C630.628 856.027 634.046 863.142 638.277 876.814C642.509 890.486 643.974 898.996 642.672 902.344ZM442.477 495.536C444.43 503.906 443.128 511.719 438.57 518.973C430.758 531.808 414.482 542.411 389.742 550.781C370.211 557.478 350.68 560.826 331.148 560.826C314.221 559.152 298.271 551.897 283.297 539.063C274.182 530.692 268.323 519.252 265.719 504.743L266.695 502.232C268.648 503.906 274.996 505.301 285.738 506.417C296.48 507.533 305.107 507.533 311.617 506.417C318.128 505.301 337.008 500.837 368.258 493.025C391.695 486.328 409.599 482.422 421.969 481.306C433.036 481.306 439.872 486.049 442.477 495.536ZM1124.12 603.516L1185.64 793.527L1049.9 758.371L1124.12 603.516ZM42.0859 1273.16L719.82 1078.96V215.123L42.0859 410.156V1273.16ZM1254 1007.81L1353.61 1033.76L1176.85 483.817L1079.2 457.868L868.258 906.529L967.867 932.478L1011.81 840.402L1217.87 894.81L1254 1007.81ZM762.789 202.567L1322.36 356.585V38.5045L762.789 202.567ZM1066.5 1309.99L1220.8 1320.87L1168.06 1454.8L1129 1399.55C1044.36 1445.87 954.521 1476 859.469 1489.96C821.708 1496.65 792.086 1500 770.602 1500H688.57C637.138 1500 572.197 1489.12 493.746 1467.35C415.296 1445.59 355.562 1421.88 314.547 1396.21C309.339 1392.3 306.734 1387.83 306.734 1382.81C306.734 1378.35 308.362 1374.58 311.617 1371.51C314.872 1368.44 319.104 1366.91 324.312 1366.91C326.917 1366.91 332.776 1369 341.891 1373.19C351.005 1377.37 360.934 1381.98 371.676 1387C382.418 1392.02 389.091 1395.09 391.695 1396.21C439.221 1416.85 491.142 1434.01 547.457 1447.68C603.772 1461.36 655.042 1468.19 701.266 1468.19C763.115 1468.19 817.477 1464.15 864.352 1456.05C911.227 1447.96 962.333 1433.87 1017.67 1413.78C1027.44 1409.88 1037.37 1405.55 1047.46 1400.81C1057.55 1396.07 1068.62 1390.76 1080.66 1384.91C1092.7 1379.05 1101.98 1374.44 1108.49 1371.09L1066.5 1309.99ZM1504 406.808V1309.99L748.141 1104.07C739.026 1107.42 616.956 1143 381.93 1210.8C146.904 1278.6 27.112 1312.5 22.5547 1312.5C14.0911 1312.5 8.23177 1308.87 4.97656 1301.62C4.97656 1301.06 4.65104 1300.22 4 1299.11V396.763C5.95312 391.741 7.25521 388.951 7.90625 388.393C11.1615 385.045 17.6719 381.975 27.4375 379.185C97.099 359.096 145.602 345.145 172.945 337.333V15.904L717.867 181.641C719.169 181.641 771.415 166.295 874.605 135.603C977.796 104.911 1080.66 74.6373 1183.2 44.7824C1285.74 14.9275 1338.31 0 1340.91 0C1353.93 0 1360.45 5.85938 1360.45 17.5781V367.467L1504 406.808Z"/>
</mask>
<path d="M642.672 902.344C642.021 904.018 637.952 903.878 630.465 901.925C622.978 899.972 612.724 896.763 599.703 892.299L580.172 884.766C551.526 873.605 523.206 859.933 495.211 843.75C490.654 840.96 477.307 832.171 455.172 817.383C433.036 802.595 420.667 794.643 418.062 793.527C374.443 851.004 330.823 901.507 287.203 945.034C234.469 998.047 200.289 1028.74 184.664 1037.11C182.06 1038.23 175.712 1039.34 165.621 1040.46C155.53 1041.57 149.508 1041.57 147.555 1040.46C151.461 1038.23 178.154 1012.56 227.633 963.449C241.305 950.056 269.137 917.969 311.129 867.188C353.121 816.406 378.674 783.482 387.789 768.415C398.857 751.674 415.458 724.191 437.594 685.965C459.729 647.74 471.448 626.116 472.75 621.094C467.542 620.536 431.734 629.743 365.328 648.717C360.12 649.833 351.168 651.925 338.473 654.994C325.777 658.064 314.547 660.714 304.781 662.946C295.016 665.179 289.482 666.574 288.18 667.132C286.878 668.248 286.227 671.177 286.227 675.921C286.227 680.664 285.901 683.315 285.25 683.873C281.995 689.453 271.904 693.638 254.977 696.429C240.003 700.335 224.703 700.335 209.078 696.429C197.359 694.196 188.245 688.337 181.734 678.85C179.13 675.502 177.503 669.085 176.852 659.598C180.758 658.482 188.733 657.087 200.777 655.413C212.822 653.739 222.424 652.065 229.586 650.391C267.346 641.462 301.526 632.534 332.125 623.605C397.229 604.074 430.432 594.308 431.734 594.308C438.245 593.192 452.242 587.751 473.727 577.986C495.211 568.22 509.534 562.221 516.695 559.989C522.555 558.315 529.553 556.083 537.691 553.292C545.829 550.502 550.549 548.968 551.852 548.689C553.154 548.41 555.107 548.549 557.711 549.107C559.013 555.804 558.688 565.011 556.734 576.73C556.734 577.846 552.665 585.379 544.527 599.33C536.389 613.281 527.763 628.209 518.648 644.113C509.534 660.017 504 669.364 502.047 672.154C485.771 700.056 460.706 736.607 426.852 781.808L489.352 805.246C497.164 808.594 521.415 817.522 562.105 832.031C602.796 846.54 624.768 854.353 628.023 855.469C630.628 856.027 634.046 863.142 638.277 876.814C642.509 890.486 643.974 898.996 642.672 902.344ZM442.477 495.536C444.43 503.906 443.128 511.719 438.57 518.973C430.758 531.808 414.482 542.411 389.742 550.781C370.211 557.478 350.68 560.826 331.148 560.826C314.221 559.152 298.271 551.897 283.297 539.063C274.182 530.692 268.323 519.252 265.719 504.743L266.695 502.232C268.648 503.906 274.996 505.301 285.738 506.417C296.48 507.533 305.107 507.533 311.617 506.417C318.128 505.301 337.008 500.837 368.258 493.025C391.695 486.328 409.599 482.422 421.969 481.306C433.036 481.306 439.872 486.049 442.477 495.536ZM1124.12 603.516L1185.64 793.527L1049.9 758.371L1124.12 603.516ZM42.0859 1273.16L719.82 1078.96V215.123L42.0859 410.156V1273.16ZM1254 1007.81L1353.61 1033.76L1176.85 483.817L1079.2 457.868L868.258 906.529L967.867 932.478L1011.81 840.402L1217.87 894.81L1254 1007.81ZM762.789 202.567L1322.36 356.585V38.5045L762.789 202.567ZM1066.5 1309.99L1220.8 1320.87L1168.06 1454.8L1129 1399.55C1044.36 1445.87 954.521 1476 859.469 1489.96C821.708 1496.65 792.086 1500 770.602 1500H688.57C637.138 1500 572.197 1489.12 493.746 1467.35C415.296 1445.59 355.562 1421.88 314.547 1396.21C309.339 1392.3 306.734 1387.83 306.734 1382.81C306.734 1378.35 308.362 1374.58 311.617 1371.51C314.872 1368.44 319.104 1366.91 324.312 1366.91C326.917 1366.91 332.776 1369 341.891 1373.19C351.005 1377.37 360.934 1381.98 371.676 1387C382.418 1392.02 389.091 1395.09 391.695 1396.21C439.221 1416.85 491.142 1434.01 547.457 1447.68C603.772 1461.36 655.042 1468.19 701.266 1468.19C763.115 1468.19 817.477 1464.15 864.352 1456.05C911.227 1447.96 962.333 1433.87 1017.67 1413.78C1027.44 1409.88 1037.37 1405.55 1047.46 1400.81C1057.55 1396.07 1068.62 1390.76 1080.66 1384.91C1092.7 1379.05 1101.98 1374.44 1108.49 1371.09L1066.5 1309.99ZM1504 406.808V1309.99L748.141 1104.07C739.026 1107.42 616.956 1143 381.93 1210.8C146.904 1278.6 27.112 1312.5 22.5547 1312.5C14.0911 1312.5 8.23177 1308.87 4.97656 1301.62C4.97656 1301.06 4.65104 1300.22 4 1299.11V396.763C5.95312 391.741 7.25521 388.951 7.90625 388.393C11.1615 385.045 17.6719 381.975 27.4375 379.185C97.099 359.096 145.602 345.145 172.945 337.333V15.904L717.867 181.641C719.169 181.641 771.415 166.295 874.605 135.603C977.796 104.911 1080.66 74.6373 1183.2 44.7824C1285.74 14.9275 1338.31 0 1340.91 0C1353.93 0 1360.45 5.85938 1360.45 17.5781V367.467L1504 406.808Z" fill="#FE5C00"/>
<path d="M642.672 902.344C642.021 904.018 637.952 903.878 630.465 901.925C622.978 899.972 612.724 896.763 599.703 892.299L580.172 884.766C551.526 873.605 523.206 859.933 495.211 843.75C490.654 840.96 477.307 832.171 455.172 817.383C433.036 802.595 420.667 794.643 418.062 793.527C374.443 851.004 330.823 901.507 287.203 945.034C234.469 998.047 200.289 1028.74 184.664 1037.11C182.06 1038.23 175.712 1039.34 165.621 1040.46C155.53 1041.57 149.508 1041.57 147.555 1040.46C151.461 1038.23 178.154 1012.56 227.633 963.449C241.305 950.056 269.137 917.969 311.129 867.188C353.121 816.406 378.674 783.482 387.789 768.415C398.857 751.674 415.458 724.191 437.594 685.965C459.729 647.74 471.448 626.116 472.75 621.094C467.542 620.536 431.734 629.743 365.328 648.717C360.12 649.833 351.168 651.925 338.473 654.994C325.777 658.064 314.547 660.714 304.781 662.946C295.016 665.179 289.482 666.574 288.18 667.132C286.878 668.248 286.227 671.177 286.227 675.921C286.227 680.664 285.901 683.315 285.25 683.873C281.995 689.453 271.904 693.638 254.977 696.429C240.003 700.335 224.703 700.335 209.078 696.429C197.359 694.196 188.245 688.337 181.734 678.85C179.13 675.502 177.503 669.085 176.852 659.598C180.758 658.482 188.733 657.087 200.777 655.413C212.822 653.739 222.424 652.065 229.586 650.391C267.346 641.462 301.526 632.534 332.125 623.605C397.229 604.074 430.432 594.308 431.734 594.308C438.245 593.192 452.242 587.751 473.727 577.986C495.211 568.22 509.534 562.221 516.695 559.989C522.555 558.315 529.553 556.083 537.691 553.292C545.829 550.502 550.549 548.968 551.852 548.689C553.154 548.41 555.107 548.549 557.711 549.107C559.013 555.804 558.688 565.011 556.734 576.73C556.734 577.846 552.665 585.379 544.527 599.33C536.389 613.281 527.763 628.209 518.648 644.113C509.534 660.017 504 669.364 502.047 672.154C485.771 700.056 460.706 736.607 426.852 781.808L489.352 805.246C497.164 808.594 521.415 817.522 562.105 832.031C602.796 846.54 624.768 854.353 628.023 855.469C630.628 856.027 634.046 863.142 638.277 876.814C642.509 890.486 643.974 898.996 642.672 902.344ZM442.477 495.536C444.43 503.906 443.128 511.719 438.57 518.973C430.758 531.808 414.482 542.411 389.742 550.781C370.211 557.478 350.68 560.826 331.148 560.826C314.221 559.152 298.271 551.897 283.297 539.063C274.182 530.692 268.323 519.252 265.719 504.743L266.695 502.232C268.648 503.906 274.996 505.301 285.738 506.417C296.48 507.533 305.107 507.533 311.617 506.417C318.128 505.301 337.008 500.837 368.258 493.025C391.695 486.328 409.599 482.422 421.969 481.306C433.036 481.306 439.872 486.049 442.477 495.536ZM1124.12 603.516L1185.64 793.527L1049.9 758.371L1124.12 603.516ZM42.0859 1273.16L719.82 1078.96V215.123L42.0859 410.156V1273.16ZM1254 1007.81L1353.61 1033.76L1176.85 483.817L1079.2 457.868L868.258 906.529L967.867 932.478L1011.81 840.402L1217.87 894.81L1254 1007.81ZM762.789 202.567L1322.36 356.585V38.5045L762.789 202.567ZM1066.5 1309.99L1220.8 1320.87L1168.06 1454.8L1129 1399.55C1044.36 1445.87 954.521 1476 859.469 1489.96C821.708 1496.65 792.086 1500 770.602 1500H688.57C637.138 1500 572.197 1489.12 493.746 1467.35C415.296 1445.59 355.562 1421.88 314.547 1396.21C309.339 1392.3 306.734 1387.83 306.734 1382.81C306.734 1378.35 308.362 1374.58 311.617 1371.51C314.872 1368.44 319.104 1366.91 324.312 1366.91C326.917 1366.91 332.776 1369 341.891 1373.19C351.005 1377.37 360.934 1381.98 371.676 1387C382.418 1392.02 389.091 1395.09 391.695 1396.21C439.221 1416.85 491.142 1434.01 547.457 1447.68C603.772 1461.36 655.042 1468.19 701.266 1468.19C763.115 1468.19 817.477 1464.15 864.352 1456.05C911.227 1447.96 962.333 1433.87 1017.67 1413.78C1027.44 1409.88 1037.37 1405.55 1047.46 1400.81C1057.55 1396.07 1068.62 1390.76 1080.66 1384.91C1092.7 1379.05 1101.98 1374.44 1108.49 1371.09L1066.5 1309.99ZM1504 406.808V1309.99L748.141 1104.07C739.026 1107.42 616.956 1143 381.93 1210.8C146.904 1278.6 27.112 1312.5 22.5547 1312.5C14.0911 1312.5 8.23177 1308.87 4.97656 1301.62C4.97656 1301.06 4.65104 1300.22 4 1299.11V396.763C5.95312 391.741 7.25521 388.951 7.90625 388.393C11.1615 385.045 17.6719 381.975 27.4375 379.185C97.099 359.096 145.602 345.145 172.945 337.333V15.904L717.867 181.641C719.169 181.641 771.415 166.295 874.605 135.603C977.796 104.911 1080.66 74.6373 1183.2 44.7824C1285.74 14.9275 1338.31 0 1340.91 0C1353.93 0 1360.45 5.85938 1360.45 17.5781V367.467L1504 406.808Z" stroke="#FE5C00" stroke-width="2" mask="url(#path-1-inside-1_1783_8293)"/>
</g>
<defs>
<filter id="filter0_d_1783_8293" x="0" y="0" width="1508" height="1508" filterUnits="userSpaceOnUse" color-interpolation-filters="sRGB">
<feFlood flood-opacity="0" result="BackgroundImageFix"/>
<feColorMatrix in="SourceAlpha" type="matrix" values="0 0 0 0 0 0 0 0 0 0 0 0 0 0 0 0 0 0 127 0" result="hardAlpha"/>
<feOffset dy="4"/>
<feGaussianBlur stdDeviation="2"/>
<feComposite in2="hardAlpha" operator="out"/>
<feColorMatrix type="matrix" values="0 0 0 0 0 0 0 0 0 0 0 0 0 0 0 0 0 0 0.25 0"/>
<feBlend mode="normal" in2="BackgroundImageFix" result="effect1_dropShadow_1783_8293"/>
<feBlend mode="normal" in="SourceGraphic" in2="effect1_dropShadow_1783_8293" result="shape"/>
</filter>
</defs>
</svg>
