<svg width="50" height="39" viewBox="0 0 50 39" fill="none" xmlns="http://www.w3.org/2000/svg">
<path d="M23.1605 30.2226C22.6591 30.2286 22.1752 30.0181 21.8111 29.6356C21.447 29.2531 21.231 28.7286 21.2089 28.1727C21.2047 28.0755 21.1964 27.8141 20.9948 27.8141C20.9116 27.8141 20.841 27.8673 20.7599 27.9506C20.5271 28.1889 20.232 28.4272 19.8039 28.4272C19.5857 28.4221 19.3704 28.3702 19.1699 28.2745C18.058 27.7794 18.0434 26.9372 18.0871 26.5971C18.0996 26.5092 18.1016 26.412 18.0455 26.3426L17.979 26.2732H17.9083C17.8522 26.2732 17.794 26.3009 17.7151 26.3634C17.443 26.5931 17.1131 26.7225 16.7715 26.7336C16.5912 26.7316 16.4129 26.6923 16.2456 26.6179C14.7741 25.9932 14.8947 24.4708 14.9632 24.0127C14.9736 23.9178 14.9528 23.8461 14.9009 23.7998L14.797 23.7073L14.6993 23.8068C14.4173 24.1081 14.0411 24.2765 13.6497 24.2764C13.2476 24.2777 12.8616 24.1017 12.5764 23.7872C12.2911 23.4727 12.1299 23.0453 12.1283 22.599C12.1283 21.6735 12.81 20.9285 13.6497 20.9285C14.4062 20.9285 15.0526 21.5532 15.1482 22.3862L15.2023 22.8373L15.4309 22.4556C15.4517 22.4139 16.069 21.3913 17.2017 21.3913C17.4137 21.3913 17.6382 21.4283 17.8585 21.507C18.7605 21.8077 18.9143 22.7101 18.9372 23.0803C18.9538 23.2978 19.093 23.3116 19.1242 23.3116C19.2011 23.3116 19.2572 23.2561 19.2967 23.2075C19.4425 23.0412 19.6171 22.9094 19.81 22.8199C20.0029 22.7305 20.21 22.6852 20.4191 22.6869C20.6851 22.6869 20.9657 22.7563 21.2546 22.8952C22.6887 23.5731 22.0423 25.5744 22.0319 25.5953C21.9114 25.9284 21.9051 26.0742 22.0215 26.1598L22.0776 26.1899H22.1192C22.1816 26.1899 22.2647 26.1575 22.3977 26.1089C22.591 26.0349 22.8861 25.9238 23.1605 25.9238C23.6751 25.9262 24.1683 26.1531 24.5337 26.5555C24.8992 26.958 25.1076 27.5039 25.1142 28.0755C25.1109 28.6479 24.9033 29.1954 24.5371 29.5979C24.1708 30.0004 23.6757 30.2251 23.1605 30.2226ZM38.337 20.5722C35.9718 18.3048 30.5056 13.0758 29.0237 11.8496C28.1798 11.1509 27.6 10.7807 27.0949 10.6164C26.788 10.5105 26.4686 10.456 26.1472 10.4544C25.7689 10.4544 25.3657 10.5285 24.9417 10.6742C23.9856 11.0097 23.0337 11.8426 22.1109 12.6501L22.0631 12.6918C21.2026 13.4414 20.3172 14.2188 19.6438 14.3808C19.3505 14.4546 19.0508 14.4926 18.7501 14.4941C17.9977 14.4941 17.3222 14.2535 17.0666 13.8972C17.025 13.8394 17.052 13.7445 17.1497 13.608L17.1664 13.5895L19.2448 11.1208C20.8722 9.32997 22.4143 7.63635 25.958 7.54611H26.1347C28.342 7.54611 30.5409 8.63124 30.7903 8.75849C32.767 9.84291 34.9384 10.4156 37.142 10.4336C39.3783 10.4336 41.6895 9.8251 44.1129 8.59422C43.8386 8.341 43.5579 8.09643 43.2712 7.86077C41.1408 8.8788 39.1081 9.38781 37.1482 9.38781C35.1488 9.38781 33.1473 8.85798 31.2081 7.8145C31.1042 7.7636 28.6724 6.50264 26.1368 6.49569C26.0703 6.49569 26.0017 6.49569 25.9372 6.50032C22.9568 6.57667 21.2816 7.74046 20.1551 8.75849C19.0577 8.78857 18.1141 9.07778 17.2703 9.33691C16.52 9.56828 15.8715 9.76726 15.2355 9.76495C14.9757 9.76495 14.5081 9.74181 14.4665 9.73718C13.7391 9.71404 10.0707 8.7261 7.15465 7.51141C6.85744 7.74278 6.5727 7.98109 6.29211 8.22865C9.33906 9.60067 13.0469 10.665 14.215 10.7483C14.5413 10.7714 14.8863 10.8107 15.2355 10.8107C16.0087 10.8107 16.7818 10.5724 17.5301 10.3411C17.9728 10.2045 18.457 10.0565 18.9683 9.94773L18.561 10.3966L16.4472 12.9116C16.281 13.0967 15.9193 13.5918 16.1562 14.2003C16.2798 14.4801 16.4731 14.7146 16.7133 14.8759C17.2183 15.2507 18.1203 15.5006 18.9579 15.5029C19.2739 15.5029 19.5752 15.4682 19.8517 15.4011C20.7391 15.1813 21.6682 14.3646 22.6554 13.5039C23.439 12.819 24.553 11.9491 25.4052 11.6946C25.6561 11.6205 25.9145 11.5816 26.1742 11.5789C26.2402 11.577 26.3062 11.5809 26.3716 11.5905C26.9328 11.6691 27.4794 11.8797 28.4563 12.6825C30.1917 14.117 37.8736 21.5093 37.9463 21.581C37.9505 21.5856 38.441 22.0507 38.4035 22.8234C38.389 23.2538 38.1749 23.6379 37.7925 23.9016C37.4939 24.1217 37.1448 24.2422 36.7865 24.2487C36.4716 24.248 36.1632 24.1486 35.897 23.9618C35.8679 23.9386 33.2366 21.2848 32.2681 20.3918C32.1143 20.2529 31.9646 20.1257 31.8108 20.1257C31.7727 20.1252 31.7349 20.1343 31.7004 20.1523C31.6658 20.1704 31.6354 20.1968 31.6113 20.2298C31.4596 20.438 31.6321 20.7203 31.8295 20.91L34.9056 24.3111C34.9097 24.3111 35.288 24.7045 35.3296 25.2251C35.3545 25.7896 35.1093 26.2593 34.6021 26.6272C34.2807 26.8757 33.9004 27.0134 33.5089 27.0228C33.1983 27.0215 32.8949 26.9193 32.636 26.729L32.1912 26.2523C31.4678 25.4452 30.7192 24.6665 29.9465 23.9178C29.7969 23.7836 29.6389 23.6587 29.4872 23.6587C29.4509 23.6576 29.4149 23.6649 29.3813 23.68C29.3476 23.6951 29.3172 23.7178 29.2918 23.7466C29.2232 23.8322 29.1754 23.9849 29.35 24.2371C29.3972 24.3057 29.4494 24.3699 29.5059 24.4291L31.7464 27.201C31.7672 27.2241 32.2078 27.8025 31.7963 28.3833L31.7173 28.4943C31.652 28.5728 31.5826 28.647 31.5095 28.7164C31.127 29.0635 30.6157 29.0959 30.4141 29.0959C30.3117 29.0971 30.2095 29.0878 30.1086 29.0681C29.8883 29.0265 29.7387 28.9571 29.668 28.8622L29.641 28.8321C29.5163 28.6933 28.3898 27.4231 27.4503 26.5647C27.3277 26.449 27.1739 26.3102 27.0139 26.3102C26.9763 26.3098 26.9391 26.3183 26.9048 26.335C26.8704 26.3517 26.8396 26.3764 26.8143 26.4074C26.6273 26.6295 26.9058 26.9626 27.0222 27.0853L28.9343 29.4059C28.9191 29.4578 28.8959 29.5063 28.8657 29.5494C28.7971 29.6512 28.5664 29.908 27.8702 30.0028C27.7861 30.0145 27.7014 30.02 27.6166 30.019C26.8995 30.019 26.1368 29.6396 25.7419 29.4082C25.92 28.9918 26.0123 28.5366 26.0121 28.0755C26.0101 27.6521 25.9315 27.2333 25.7809 26.8443C25.6303 26.4552 25.4108 26.1038 25.1355 25.8109C24.8601 25.518 24.5346 25.2896 24.1781 25.1392C23.8217 24.9889 23.4417 24.9197 23.0607 24.9359C23.1106 24.1446 23.0088 22.6453 21.6121 21.9882C21.2356 21.8024 20.8289 21.704 20.417 21.699C20.1135 21.699 19.8205 21.7568 19.5441 21.8725C19.2523 21.2505 18.751 20.7815 18.1494 20.5676C17.8194 20.4394 17.4724 20.373 17.1227 20.3709C16.5408 20.3709 16.0066 20.556 15.5286 20.9308C15.3016 20.621 15.0156 20.371 14.691 20.1989C14.3664 20.0269 14.0114 19.937 13.6518 19.936C13.0142 19.937 12.4024 20.2152 11.9475 20.711C11.351 20.209 8.98573 18.5593 2.66321 16.979C2.18113 16.8443 1.70161 16.6985 1.22495 16.5418C1.15387 16.9194 1.10045 17.3009 1.06491 17.6847L2.45745 18.048C8.91714 19.6259 11.0537 21.2663 11.4133 21.5764C11.2904 21.9 11.2268 22.2477 11.2263 22.599C11.2279 22.9925 11.3075 23.3807 11.4594 23.7361C11.6113 24.0916 11.8318 24.4054 12.1052 24.6554C12.3786 24.9055 12.6982 25.0855 13.0413 25.1827C13.3844 25.28 13.7425 25.2921 14.0903 25.2181C14.2898 26.2986 14.9341 27.1177 15.9172 27.5388C16.1922 27.6583 16.4845 27.7211 16.7798 27.7239C16.9668 27.7239 17.1518 27.6961 17.3326 27.6452C17.5114 28.1542 17.9187 28.7858 18.8332 29.1907C19.1345 29.3297 19.4569 29.4035 19.7831 29.4082C20.0366 29.4082 20.284 29.3573 20.5209 29.2625C20.7385 29.8398 21.1051 30.3327 21.5744 30.679C22.0438 31.0252 22.5949 31.2094 23.1584 31.2083C23.9274 31.2129 24.6673 30.8682 25.2056 30.2597C25.665 30.5396 26.6356 31.0486 27.6228 31.0486C27.7475 31.0486 27.8681 31.044 27.9866 31.0255C28.9634 30.889 29.4186 30.4702 29.6264 30.1417C29.664 30.0846 29.6973 30.0242 29.7262 29.9612C29.9548 30.0352 30.2125 30.0954 30.5014 30.0954C31.0314 30.0954 31.5427 29.8964 32.0602 29.4823C32.5674 29.0797 32.929 28.5013 32.9831 28.0084V27.9853C33.1556 28.0246 33.3301 28.0455 33.5047 28.0455C34.0555 28.0455 34.6001 27.8557 35.1113 27.4855C36.109 26.7683 36.2794 25.8312 36.2628 25.2181C36.6114 25.2984 36.9709 25.3 37.32 25.2229C37.6692 25.1458 38.0009 24.9915 38.2955 24.7693C38.5904 24.5725 38.8389 24.3002 39.0204 23.9751C39.2019 23.65 39.311 23.2813 39.3388 22.8998C39.3749 22.3698 39.2584 21.8408 39.0063 21.389C40.6773 20.5977 44.485 19.0683 48.9723 17.9577C48.9439 17.5758 48.8974 17.1959 48.833 16.8194C45.2352 17.6939 41.7212 18.949 38.3391 20.5676L38.337 20.5722ZM48.9847 18.8069C48.9847 28.1241 38.2477 35.6806 25.0061 35.6806C11.7625 35.6806 1.02542 28.1241 1.02542 18.8069C1.02542 9.4873 11.7604 1.93309 25.0082 1.93309C38.2497 1.93309 48.9847 9.4873 48.9847 18.8069ZM49.9408 18.8161C49.9408 8.93202 38.7714 0.873413 24.9999 0.873413C11.2283 0.873413 0.0631168 8.93202 0.0631168 18.8184L0.05896 19.8689C0.05896 30.3568 9.81709 38.8481 24.9978 38.8481C40.2679 38.8481 49.9387 30.3568 49.9387 19.8665L49.9408 18.8161Z" fill="white"/>
</svg>
