<svg width="48" height="40" viewBox="0 0 48 40" fill="none" xmlns="http://www.w3.org/2000/svg">
<path fill-rule="evenodd" clip-rule="evenodd" d="M17.8279 2.76892C17.3539 2.61083 16.8269 2.58846 16.3325 2.70559C15.8385 2.82263 15.4177 3.07006 15.1285 3.39583C15.1285 3.39586 15.1285 3.39581 15.1285 3.39583L2.03933 18.147C1.57992 18.6647 1.26588 19.2542 1.11288 19.873C0.959995 20.4912 0.97017 21.1291 1.14301 21.7442C1.31598 22.3598 1.64921 22.9428 2.12575 23.4507C2.60253 23.9589 3.21088 24.3792 3.91149 24.678C3.91147 24.6779 3.91151 24.678 3.91149 24.678L31.1973 36.3092C31.7202 36.5322 32.2988 36.657 32.8909 36.6726C33.483 36.6882 34.0704 36.594 34.6103 36.3985C35.1502 36.203 35.6259 35.9121 36.0058 35.551C36.3855 35.1902 36.6591 34.7693 36.8135 34.3209L44.0347 13.3652C44.1887 12.9177 44.1403 12.4382 43.8902 12.0116C43.6377 11.581 43.191 11.2262 42.6193 11.0354L17.8279 2.76892ZM16.1404 1.8947C16.783 1.74245 17.4679 1.77042 18.0915 1.97839L42.883 10.2449C43.6202 10.491 44.2416 10.9634 44.609 11.59C44.9788 12.2206 45.058 12.9527 44.8226 13.6365L37.6014 34.5923C37.4003 35.1762 37.0492 35.709 36.5799 36.1551C36.1108 36.6009 35.5343 36.9502 34.8941 37.182C34.2539 37.4139 33.5626 37.5239 32.869 37.5056C32.1754 37.4874 31.4932 37.3413 30.8705 37.0758C30.8705 37.0757 30.8706 37.0758 30.8705 37.0758L3.58471 25.4445C2.78586 25.1039 2.07953 24.6194 1.51801 24.0209C0.956216 23.4221 0.552351 22.7227 0.340739 21.9696C0.128988 21.216 0.116319 20.4315 0.303918 19.6729C0.491401 18.9148 0.873013 18.2058 1.41601 17.5939C1.416 17.5939 1.41601 17.5939 1.41601 17.5939L14.5052 2.84274C14.9198 2.3757 15.4974 2.04704 16.1404 1.8947Z" fill="#FE5C00"/>
<path fill-rule="evenodd" clip-rule="evenodd" d="M27.0915 1.71092C26.4356 1.60653 25.7585 1.68856 25.1701 1.94006L25.1701 1.94009L5.295 10.4326C5.28303 10.4377 5.27087 10.4422 5.25857 10.4462C4.58221 10.7404 3.9949 11.1501 3.53354 11.6436C3.06472 12.145 2.73768 12.7203 2.56897 13.3274C2.4004 13.934 2.39249 14.5628 2.54553 15.1718C2.69869 15.7813 3.01079 16.3616 3.46627 16.8707L3.46628 16.8707L21.5852 37.1224C21.5853 37.1224 21.5853 37.1225 21.5853 37.1225C21.8954 37.4688 22.2972 37.7594 22.7658 37.9695C23.2344 38.1797 23.7555 38.3029 24.2922 38.3284C24.8289 38.3539 25.3646 38.2809 25.8609 38.1158C26.3572 37.9506 26.7989 37.6985 27.157 37.3811L45.7885 20.8576L45.7886 20.8575C46.1294 20.5554 46.307 20.1738 46.3147 19.7927C46.3225 19.4118 46.1608 19.0271 45.8343 18.717L45.8342 18.717L28.7566 2.50163L28.7565 2.50151C28.3318 2.098 27.7476 1.81534 27.0915 1.71092ZM24.8426 1.17381C25.5795 0.858785 26.416 0.759579 27.2225 0.887948C28.0289 1.01628 28.7723 1.36704 29.3304 1.89731C29.3304 1.89735 29.3305 1.89739 29.3305 1.89743L46.408 18.1127C46.8874 18.5678 47.1609 19.1717 47.1479 19.8096C47.1349 20.4473 46.8373 21.0414 46.3415 21.4811C46.3415 21.4811 46.3414 21.4811 46.3414 21.4811L27.7098 38.0047L27.7097 38.0048C27.2617 38.4019 26.7197 38.7083 26.1239 38.9065C25.5281 39.1047 24.8897 39.1911 24.2527 39.1608C23.6156 39.1305 22.9919 38.9842 22.4248 38.7299C21.8577 38.4756 21.3581 38.1181 20.9644 37.6783L20.9643 37.6782L2.84523 17.4264C2.30576 16.8234 1.92553 16.1239 1.73732 15.3749C1.549 14.6254 1.55889 13.8498 1.76606 13.1043C1.9731 12.3593 2.37068 11.6672 2.9248 11.0745C3.47865 10.482 4.17596 10.0025 4.96501 9.66525C4.97741 9.65995 4.99001 9.65528 5.00275 9.65123L24.8426 1.17381Z" fill="#FE5C00"/>
</svg>
