<svg width="285" height="344" viewBox="0 0 285 344" fill="none" xmlns="http://www.w3.org/2000/svg">
<path d="M282.802 328.538C284.209 330.237 285 332.54 285 334.943C285 337.345 284.209 339.649 282.802 341.347C281.395 343.046 279.486 344 277.496 344C275.506 344 273.597 343.046 272.19 341.347L142.5 184.809L12.81 341.347C11.4028 343.046 9.49412 344 7.50395 344C5.51378 344 3.60512 343.046 2.19786 341.347C0.790595 339.649 3.9231e-08 337.345 0 334.943C-3.9231e-08 332.54 0.790588 330.237 2.19785 328.538L131.888 172L2.19785 15.462C0.790588 13.7634 0 11.4596 0 9.0574C0 6.65523 0.790588 4.35144 2.19785 2.65285C3.60512 0.954254 5.51378 0 7.50395 0C9.49412 0 11.4028 0.954254 12.81 2.65285L142.5 159.191L272.19 2.65285C272.887 1.81179 273.714 1.14463 274.624 0.689449C275.535 0.234272 276.511 2.34466e-08 277.496 0C278.481 -2.34466e-08 279.457 0.234272 280.368 0.689449C281.278 1.14463 282.105 1.81179 282.802 2.65285C283.499 3.4939 284.052 4.49239 284.429 5.59128C284.806 6.69018 285 7.86796 285 9.0574C285 10.2468 284.806 11.4246 284.429 12.5235C284.052 13.6224 283.499 14.6209 282.802 15.462L153.112 172L282.802 328.538Z" fill="#FE5C00"/>
</svg>
